<?xml version="1.0" standalone="no"?><!DOCTYPE svg PUBLIC "-//W3C//DTD SVG 1.1//EN" "http://www.w3.org/Graphics/SVG/1.1/DTD/svg11.dtd"><svg t="1751858463940" class="icon" viewBox="0 0 1024 1024" version="1.1" xmlns="http://www.w3.org/2000/svg" p-id="15139" xmlns:xlink="http://www.w3.org/1999/xlink" width="200" height="200"><path d="M431.706353 783.239529l348.039529-348.039529 42.827294-42.827294a98.785882 98.785882 0 0 0 26.804706-64.271059c0-26.744471-10.721882-48.188235-26.804706-64.210823l-96.37647-96.376471a88.666353 88.666353 0 0 0-64.271059-26.804706c-26.744471 0-48.188235 10.721882-64.210823 26.804706L190.765176 574.403765c-5.360941 5.360941-16.022588 21.443765-26.74447 58.910117-5.421176 21.383529-16.082824 48.188235-21.443765 85.654589-7.107765 39.273412-14.275765 76.739765-21.383529 112.459294 0 10.721882 0 21.383529 10.661647 26.74447 5.421176 5.421176 16.082824 10.721882 21.443765 10.721883h5.360941A6534.927059 6534.927059 0 0 1 271.058824 847.450353c32.105412-5.300706 64.210824-16.022588 85.654588-21.383529 37.466353-10.721882 53.549176-21.443765 64.210823-26.804706l10.721883-16.022589zM276.48 585.065412l305.212235-305.152 133.842824 133.842823-310.512941 299.851294-128.542118-128.481882z m348.039529-353.340236l21.443765-21.383529c5.360941-5.421176 10.721882-10.721882 21.38353-10.721882 5.421176 0 10.721882 0 16.082823 5.360941l96.376471 101.737412c5.360941 5.360941 5.360941 10.661647 5.360941 16.022588 0 5.421176-5.360941 16.082824-10.721883 21.443765l-21.383529 21.383529-128.542118-133.842824zM206.848 740.472471c16.082824-58.910118 21.383529-91.015529 26.744471-101.797647l123.181176 123.181176c-16.082824 5.421176-42.827294 16.082824-107.098353 26.804706-21.443765 5.360941-42.827294 10.661647-58.910118 10.661647 5.421176-21.383529 10.721882-37.466353 16.082824-58.849882z m669.274353-42.827295h-80.293647V617.231059c0-16.022588-16.082824-32.105412-32.165647-32.105412-16.022588 0-32.105412 16.082824-32.105412 32.105412v80.353882h-80.293647c-16.082824 0-32.165647 16.022588-32.165647 32.105412s16.082824 32.105412 32.165647 32.105412h80.293647v80.353882c0 16.022588 16.082824 32.105412 32.105412 32.105412 16.082824 0 32.165647-16.082824 32.165647-32.105412v-80.353882h80.293647c16.082824 0 32.105412-16.022588 32.105412-32.105412s-16.022588-32.105412-32.105412-32.105412z" fill="#707070" p-id="15140"></path></svg>